mtllib materials.mtl
v 0.01000001 0.5200001 0.08000004
v 0.045 0.5200001 0.07062185
v 0.045 0.41875 0.07062185
v 0.01000001 0.41875 0.08000004
v 0.07062179 0.5200001 0.04500008
v 0.07062179 0.41875 0.04500008
v 0.08000001 0.5200001 0.01000005
v 0.08000001 0.41875 0.01000005
v 0.07062178 0.5200001 -0.02499998
v 0.07062178 0.41875 -0.02499998
v 0.045 0.5200001 -0.05062175
v 0.045 0.41875 -0.05062175
v 0.01000001 0.5200001 -0.05999994
v 0.01000001 0.41875 -0.05999994
v -0.02500001 0.5200001 -0.05062175
v -0.02500001 0.41875 -0.05062175
v -0.05062178 0.5200001 -0.02499992
v -0.05062178 0.41875 -0.02499992
v -0.05999999 0.5200001 0.01000005
v -0.05999999 0.41875 0.01000005
v -0.05062178 0.5200001 0.04500002
v -0.05062178 0.41875 0.04500002
v -0.02499998 0.5200001 0.07062185
v -0.02499998 0.41875 0.07062185
v 0.01000001 -0.2899998 0.08000004
v 0.045 -0.2899998 0.07062185
v 0.07062179 -0.2899998 0.04500008
v 0.08000001 -0.2899998 0.01000005
v 0.07062178 -0.2899998 -0.02499998
v 0.045 -0.2899998 -0.05062175
v 0.01000001 -0.2899998 -0.05999994
v -0.02500001 -0.2899998 -0.05062175
v -0.05062178 -0.2899998 -0.02499992
v -0.05999999 -0.2899998 0.01000005
v -0.05062178 -0.2899998 0.04500002
v -0.02499998 -0.2899998 0.07062185
v -0.02500001 0.1150001 -0.05062175
v -0.02500001 0.01375008 -0.05062175
v 0.01000001 0.01375008 -0.05999994
v 0.01000001 0.1150001 -0.05999994
v -0.02500001 -0.08749986 -0.05062175
v -0.02500001 -0.1887498 -0.05062175
v 0.01000001 -0.1887498 -0.05999994
v 0.01000001 -0.08749986 -0.05999994
v 0.045 0.01375008 -0.05062175
v 0.045 0.1150001 -0.05062175
v 0.07062178 0.01375008 -0.02499998
v 0.07062178 0.1150001 -0.02499998
v 0.08000001 0.01375008 0.01000005
v 0.08000001 0.1150001 0.01000005
v 0.07062179 0.01375008 0.04500008
v 0.07062179 0.1150001 0.04500008
v 0.045 0.01375008 0.07062185
v 0.045 0.1150001 0.07062185
v 0.01000001 0.01375008 0.08000004
v 0.01000001 0.1150001 0.08000004
v -0.02499998 0.01375008 0.07062185
v -0.02499998 0.1150001 0.07062185
v -0.05062178 0.01375008 0.04500002
v -0.05062178 0.1150001 0.04500002
v -0.05999999 0.01375008 0.01000005
v -0.05999999 0.1150001 0.01000005
v -0.05062178 0.01375008 -0.02499992
v -0.05062178 0.1150001 -0.02499992
v -0.05062178 -0.08749986 -0.02499992
v -0.05062178 -0.1887498 -0.02499992
v -0.05999999 -0.08749986 0.01000005
v -0.05999999 -0.1887498 0.01000005
v -0.05062178 -0.08749986 0.04500002
v -0.05062178 -0.1887498 0.04500002
v -0.02499998 -0.08749986 0.07062185
v -0.02499998 -0.1887498 0.07062185
v 0.01000001 -0.08749986 0.08000004
v 0.01000001 -0.1887498 0.08000004
v 0.045 -0.08749986 0.07062185
v 0.045 -0.1887498 0.07062185
v 0.07062179 -0.08749986 0.04500008
v 0.07062179 -0.1887498 0.04500008
v 0.08000001 -0.08749986 0.01000005
v 0.08000001 -0.1887498 0.01000005
v 0.07062178 -0.08749986 -0.02499998
v 0.07062178 -0.1887498 -0.02499998
v 0.045 -0.08749986 -0.05062175
v 0.045 -0.1887498 -0.05062175
v -0.05999999 0.3175001 0.01000005
v -0.05999999 0.2162502 0.01000005
v -0.05062178 0.2162502 -0.02499992
v -0.05062178 0.3175001 -0.02499992
v -0.05062178 0.3175001 0.04500002
v -0.05062178 0.2162502 0.04500002
v -0.02499998 0.3175001 0.07062185
v -0.02499998 0.2162502 0.07062185
v 0.01000001 0.3175001 0.08000004
v 0.01000001 0.2162502 0.08000004
v 0.045 0.3175001 0.07062185
v 0.045 0.2162502 0.07062185
v 0.07062179 0.3175001 0.04500008
v 0.07062179 0.2162502 0.04500008
v 0.08000001 0.3175001 0.01000005
v 0.08000001 0.2162502 0.01000005
v 0.07062178 0.3175001 -0.02499998
v 0.07062178 0.2162502 -0.02499998
v 0.045 0.3175001 -0.05062175
v 0.045 0.2162502 -0.05062175
v 0.01000001 0.3175001 -0.05999994
v 0.01000001 0.2162502 -0.05999994
v -0.02500001 0.3175001 -0.05062175
v -0.02500001 0.2162502 -0.05062175
v -0.1458846 0.5199996 0.0999999
v -0.17 0.5199996 0.009999812
v -0.1250003 0.6324997 0.01000011
v -0.1069138 0.6324997 0.0775001
v -0.08000015 0.5199996 0.1658845
v 0.009999827 0.5199997 0.19
v 0.09999987 0.5199997 0.1658846
v 0.1658845 0.52 0.1000001
v 0.19 0.52 0.01000017
v 0.1658847 0.5200001 -0.07999986
v 0.1000001 0.52 -0.1458845
v 0.01000014 0.52 -0.17
v -0.07999988 0.5199999 -0.1458846
v -0.1458845 0.5199997 -0.08000016
v -0.1069136 0.6324997 -0.05749989
v -0.05750017 0.6324999 -0.1069132
v 0.009999812 0.6324999 -0.1249998
v 0.07749979 0.6324999 -0.1069131
v 0.1269132 0.6324999 -0.05749971
v 0.1449997 0.6324999 0.01000035
v 0.1269131 0.6324999 0.07750034
v 0.07749961 0.6324997 0.1269137
v 0.009999573 0.6324997 0.1450002
v -0.05750039 0.6324997 0.1269135
v 0.08794173 0.7449999 -0.03499949
v 0.04897033 0.8574996 -0.01249933
v 0.03249916 0.8574996 -0.02897054
v 0.05499946 0.7449999 -0.06794178
v 0.009999156 0.8574996 -0.03499943
v 0.009999484 0.7449999 -0.07999957
v 0.09999937 0.7449999 0.01000053
v 0.05499914 0.8574996 0.01000065
v -0.01250084 0.8574996 -0.02897054
v -0.03500052 0.7449999 -0.0679419
v -0.02897198 0.8574996 -0.01249945
v -0.06794281 0.7449996 -0.03499967
v -0.03500085 0.8574996 0.01000059
v -0.08000053 0.7449996 0.01000035
v -0.02897206 0.8574996 0.03250062
v -0.0679429 0.7449996 0.05500036
v -0.01250091 0.8574996 0.04897177
v -0.03500065 0.7449996 0.08794266
v 0.009999067 0.8574996 0.0550006
v 0.00999932 0.7449996 0.1000004
v 0.03249907 0.8574996 0.04897177
v 0.05499935 0.7449996 0.08794272
v 0.04897027 0.8574996 0.03250068
v 0.08794162 0.7449999 0.05500048
v 0.009998828 0.9699996 0.01000082
v -0.03 -0.2899998 -0.01999998
v -0.02500001 -0.2899998 -0.02133971
v -0.02500001 -0.8199998 -0.02133983
v -0.03 -0.8199998 -0.0200001
v -0.02133974 -0.2899998 -0.02499998
v -0.02133974 -0.8199998 -0.0250001
v -0.02 -0.2899998 -0.02999997
v -0.02 -0.8199998 -0.03000009
v -0.02133974 -0.2899998 -0.03499997
v -0.02133974 -0.8199998 -0.03500009
v -0.02500001 -0.2899998 -0.03866023
v -0.02500001 -0.8199998 -0.03866035
v -0.03 -0.2899998 -0.03999996
v -0.03 -0.8199998 -0.04000008
v -0.035 -0.2899998 -0.03866023
v -0.035 -0.8199998 -0.03866035
v -0.03866026 -0.2899998 -0.03499997
v -0.03866026 -0.8199998 -0.03500009
v -0.04000001 -0.2899998 -0.02999997
v -0.04000001 -0.8199998 -0.03000009
v -0.03866026 -0.2899998 -0.02499998
v -0.03866026 -0.8199998 -0.0250001
v -0.035 -0.2899998 -0.02133971
v -0.035 -0.8199998 -0.02133983
v 0.00999999 -0.29 0.04000002
v 0.02499999 -0.29 0.03598082
v 0.02499999 -0.3199999 0.03598082
v 0.00999999 -0.3199999 0.04000002
v 0.03598075 -0.29 0.02500004
v 0.03598075 -0.3199999 0.02500004
v 0.03999999 -0.29 0.01000005
v 0.03999999 -0.3199999 0.01000005
v 0.03598075 -0.29 -0.004999936
v 0.03598075 -0.3199999 -0.004999936
v 0.02499999 -0.29 -0.01598072
v 0.02499999 -0.3199999 -0.01598072
v 0.00999999 -0.29 -0.01999992
v 0.00999999 -0.3199999 -0.01999992
v -0.00500001 -0.29 -0.01598072
v -0.00500001 -0.3199999 -0.01598072
v -0.01598077 -0.29 -0.004999936
v -0.01598077 -0.3199999 -0.004999936
v -0.02000001 -0.29 0.01000005
v -0.02000001 -0.3199999 0.01000005
v -0.01598077 -0.29 0.02500004
v -0.01598077 -0.3199999 0.02500004
v -0.004999995 -0.29 0.03598082
v -0.004999995 -0.3199999 0.03598082
v 0.02349998 -0.3 0.03338271
v 0.009999976 -0.3 0.03699994
v 0.03338267 -0.3 0.02349997
v 0.03699999 -0.3 0.00999999
v 0.03338267 -0.3 -0.003499985
v 0.02349998 -0.3 -0.01338273
v 0.00999999 -0.3 -0.01699996
v -0.003500015 -0.3 -0.01338267
v -0.0133827 -0.3 -0.003499985
v -0.017 -0.3 0.00999999
v -0.0133827 -0.3 0.02349997
v -0.0035 -0.3 0.03338265
vn 0 0 1
vn 0.5 0 0.8660254
vn 0.8660254 0 0.5
vn 1 0 -4.371139E-08
vn 0.8660254 0 -0.5000001
vn 0.5000001 0 -0.8660254
vn -8.742278E-08 0 -1
vn -0.5000002 0 -0.8660253
vn -0.8660254 0 -0.4999999
vn -1 0 1.192488E-08
vn -0.8660254 0 0.4999999
vn -0.4999998 0 0.8660256
vn 0 1 0
vn 0 -1 0
vn -8.742278E-08 0 -1
vn -8.742278E-08 0 -1
vn 0.5000001 0 -0.8660254
vn 0.8660254 0 -0.5000001
vn 1 0 -4.371139E-08
vn 0.8660254 0 0.5
vn 0.5 0 0.8660254
vn 0 0 1
vn -0.4999998 0 0.8660256
vn -0.8660254 0 0.4999999
vn -1 0 1.192488E-08
vn -0.8660254 0 -0.4999999
vn -0.5000002 0 -0.8660253
vn -0.5000002 0 -0.8660253
vn -0.8660254 0 -0.4999999
vn -1 0 1.192488E-08
vn -0.8660254 0 0.4999999
vn -0.4999998 0 0.8660256
vn 0 0 1
vn 0.5 0 0.8660254
vn 0.8660254 0 0.5
vn 1 0 -4.371139E-08
vn 0.8660254 0 -0.5000001
vn 0.5000001 0 -0.8660254
vn 0.5000001 0 -0.8660254
vn 0.5000001 0 -0.8660254
vn -8.742278E-08 0 -1
vn -8.742278E-08 0 -1
vn 0.8660254 0 -0.5000001
vn 0.8660254 0 -0.5000001
vn 1 0 -4.371139E-08
vn 1 0 -4.371139E-08
vn 0.8660254 0 0.5
vn 0.8660254 0 0.5
vn 0.5 0 0.8660254
vn 0.5 0 0.8660254
vn 0 0 1
vn 0 0 1
vn -0.4999998 0 0.8660256
vn -0.8660254 0 0.4999999
vn -0.4999998 0 0.8660256
vn -0.8660254 0 0.4999999
vn -1 0 1.192488E-08
vn -1 0 1.192488E-08
vn -0.8660254 0 -0.4999999
vn -0.5000002 0 -0.8660253
vn -0.5000002 0 -0.8660253
vn -0.8660254 0 -0.4999999
vn -0.8660254 0 -0.4999999
vn -0.8660254 0 -0.4999999
vn -0.8660254 0 -0.4999999
vn -1 0 1.192488E-08
vn -1 0 1.192488E-08
vn -1 0 1.192488E-08
vn -0.8660254 0 0.4999999
vn -0.8660254 0 0.4999999
vn -0.8660254 0 0.4999999
vn -0.4999998 0 0.8660256
vn -0.4999998 0 0.8660256
vn -0.4999998 0 0.8660256
vn 0 0 1
vn 0 0 1
vn 0 0 1
vn 0.5 0 0.8660254
vn 0.5 0 0.8660254
vn 0.5 0 0.8660254
vn 0.8660254 0 0.5
vn 0.8660254 0 0.5
vn 0.8660254 0 0.5
vn 1 0 -4.371139E-08
vn 1 0 -4.371139E-08
vn 1 0 -4.371139E-08
vn 0.8660254 0 -0.5000001
vn 0.8660254 0 -0.5000001
vn 0.8660254 0 -0.5000001
vn 0.5000001 0 -0.8660254
vn 0.5000001 0 -0.8660254
vn 0.5000001 0 -0.8660254
vn -8.742278E-08 0 -1
vn -8.742278E-08 0 -1
vn -8.742278E-08 0 -1
vn -0.5000002 0 -0.8660253
vn -0.5000002 0 -0.8660253
vn -0.5000002 0 -0.8660253
vn -0.9010128 0.3604023 0.241425
vn 1.138367E-06 -1 -7.06149E-07
vn -0.9010122 0.3604031 -0.2414261
vn -0.6595862 0.3604044 -0.6595867
vn -0.241425 0.3604058 -0.9010115
vn 0.2414255 0.3604071 -0.9010109
vn 0.6595862 0.3604077 -0.6595851
vn 0.901011 0.3604075 -0.2414242
vn 0.9010108 0.3604067 0.2414264
vn 0.6595854 0.3604054 0.6595871
vn 0.2414241 0.3604039 0.9010125
vn -0.2414268 0.3604027 0.9010122
vn -0.6595877 0.3604022 0.6595864
vn 0.6595862 0.3604077 -0.6595851
vn 0.2414255 0.3604071 -0.9010109
vn 0.6595862 0.3604077 -0.6595851
vn 0.2414255 0.3604071 -0.9010109
vn 0.901011 0.3604075 -0.2414242
vn 0.901011 0.3604075 -0.2414242
vn -0.241425 0.3604058 -0.9010115
vn -0.241425 0.3604058 -0.9010115
vn -0.6595862 0.3604044 -0.6595867
vn -0.6595862 0.3604044 -0.6595867
vn -0.9010122 0.3604031 -0.2414261
vn -0.9010122 0.3604031 -0.2414261
vn -0.9010128 0.3604023 0.241425
vn -0.9010128 0.3604023 0.241425
vn -0.6595877 0.3604022 0.6595864
vn -0.6595877 0.3604022 0.6595864
vn -0.2414268 0.3604027 0.9010122
vn -0.2414268 0.3604027 0.9010122
vn 0.2414241 0.3604039 0.9010125
vn 0.2414241 0.3604039 0.9010125
vn 0.6595854 0.3604054 0.6595871
vn 0.6595854 0.3604054 0.6595871
vn 0.9010108 0.3604067 0.2414264
vn 0.9010108 0.3604067 0.2414264
vn 0.901011 0.3604075 -0.2414242
vn 0.6595862 0.3604077 -0.6595851
vn 0.2414255 0.3604071 -0.9010109
vn -0.241425 0.3604058 -0.9010115
vn -0.6595862 0.3604044 -0.6595867
vn -0.9010122 0.3604031 -0.2414261
vn -0.9010128 0.3604023 0.241425
vn -0.6595877 0.3604022 0.6595864
vn -0.2414268 0.3604027 0.9010122
vn 0.2414241 0.3604039 0.9010125
vn 0.6595854 0.3604054 0.6595871
vn 0.9010108 0.3604067 0.2414264
vn -1.748456E-07 -1.748456E-07 1
vn 0.4999999 -1.514207E-07 0.8660254
vn 0.8660254 -8.742277E-08 0.5000001
vn 1 7.642742E-15 1.311342E-07
vn 0.8660254 8.742278E-08 -0.4999999
vn 0.5000002 1.514207E-07 -0.8660253
vn 8.742278E-08 1.748456E-07 -1
vn -0.5000001 1.514207E-07 -0.8660254
vn -0.8660254 8.742276E-08 -0.5000001
vn -1 -2.085012E-15 -1.629207E-07
vn -0.8660255 -8.742276E-08 0.4999998
vn -0.4999999 -1.514207E-07 0.8660255
vn -3.057097E-14 1 1.748456E-07
vn 3.057097E-14 -1 -1.748456E-07
vn 0.258819 3.078164E-07 0.9659258
vn 0.7071067 -4.575402E-07 0.7071068
vn 0.9659258 -1.226207E-08 0.2588189
vn 0.9659258 -2.87244E-07 -0.2588191
vn 0.7071069 1.846663E-07 -0.7071066
vn 0.2588189 -8.773529E-07 -0.9659259
vn -0.2588191 3.851053E-07 -0.9659258
vn -0.7071069 -4.661132E-07 -0.7071067
vn -0.9659258 1.380295E-08 -0.258819
vn -0.9659258 -2.976002E-07 0.258819
vn -0.7071068 -8.786307E-08 0.7071068
vn -0.2588188 -9.03351E-07 0.9659259
vn 0 1 0
vn -0.2561404 -0.1433945 -0.9559446
vn -0.6998008 -0.1433936 -0.6997979
vn -0.9559436 -0.1433926 -0.256145
vn -0.9559439 -0.1433912 0.2561451
vn -0.6998013 -0.1433896 0.6997982
vn -0.2561407 -0.1433888 0.9559454
vn 0.2561423 -0.1433901 0.9559448
vn 0.6998002 -0.1433901 0.6997992
vn 0.955944 -0.1433908 0.2561446
vn 0.9559438 -0.1433923 -0.2561446
vn 0.6997993 -0.1433942 -0.6997993
vn 0.2561425 -0.1433956 -0.9559439
vn 0 -1 0
usemtl mat3
f 4//1 4//1 3//1 2//1 1//1
f 3//2 3//2 6//2 5//2 2//2
f 6//3 6//3 8//3 7//3 5//3
f 8//4 8//4 10//4 9//4 7//4
f 10//5 10//5 12//5 11//5 9//5
f 12//6 12//6 14//6 13//6 11//6
f 14//7 14//7 16//7 15//7 13//7
f 16//8 16//8 18//8 17//8 15//8
f 18//9 20//9 19//9 17//9
f 20//10 20//10 22//10 21//10 19//10
f 22//11 22//11 24//11 23//11 21//11
f 24//12 24//12 4//12 1//12 23//12
f 40//15 39//15 39//15 38//15 37//15
f 44//16 43//16 43//16 42//16 41//16
f 46//17 45//17 39//17 40//17
f 48//18 47//18 45//18 46//18
f 50//19 49//19 47//19 48//19
f 52//20 51//20 49//20 50//20
f 54//21 53//21 51//21 52//21
f 56//22 55//22 53//22 54//22
f 58//23 57//23 55//23 56//23
f 60//24 59//24 57//24 58//24
f 62//25 61//25 59//25 60//25
f 64//26 63//26 63//26 61//26 62//26
f 37//27 38//27 38//27 63//27 64//27
f 41//28 42//28 42//28 66//28 65//28
f 65//29 66//29 68//29 67//29
f 67//30 68//30 70//30 69//30
f 69//31 70//31 72//31 71//31
f 71//32 72//32 72//32 74//32 73//32
f 73//33 74//33 76//33 75//33
f 75//34 76//34 78//34 77//34
f 77//35 78//35 80//35 79//35
f 79//36 80//36 82//36 81//36
f 81//37 82//37 84//37 83//37
f 83//38 84//38 43//38 44//38
f 88//63 87//63 86//63 85//63
f 85//66 86//66 86//66 90//66 89//66
f 89//69 90//69 90//69 92//69 91//69
f 91//72 92//72 92//72 94//72 93//72
f 93//75 94//75 94//75 96//75 95//75
f 95//78 96//78 96//78 98//78 97//78
f 97//81 98//81 98//81 100//81 99//81
f 99//84 100//84 100//84 102//84 101//84
f 101//87 102//87 102//87 104//87 103//87
f 103//90 104//90 104//90 106//90 105//90
f 105//93 106//93 106//93 108//93 107//93
f 107//96 108//96 108//96 87//96 88//96
f 126//114 136//114 133//114 127//114
f 125//115 138//115 136//115 126//115
f 127//117 133//117 133//117 139//117 128//117
f 124//119 142//119 138//119 125//119
f 123//121 144//121 142//121 124//121
f 111//123 146//123 144//123 123//123
f 112//125 148//125 146//125 111//125
f 132//127 150//127 148//127 112//127
f 131//129 152//129 150//129 132//129
f 130//131 154//131 152//131 131//131
f 129//133 156//133 154//133 130//133
f 128//135 139//135 139//135 156//135 129//135
f 134//136 157//136 140//136
f 135//137 157//137 134//137
f 137//138 157//138 135//138
f 141//139 157//139 137//139
f 143//140 157//140 141//140
f 147//142 157//142 145//142
f 149//143 157//143 147//143
f 151//144 157//144 149//144
f 153//145 157//145 151//145
f 155//146 157//146 153//146
f 140//147 157//147 155//147
f 185//162 184//162 183//162 182//162
f 187//164 189//164 188//164 186//164
f 191//166 193//166 192//166 190//166
f 195//168 197//168 196//168 194//168
f 199//170 201//170 200//170 198//170
f 203//172 205//172 204//172 202//172
f 207//175 206//175 184//175 185//175
f 208//177 209//177 189//177 187//177
f 210//179 211//179 193//179 191//179
f 212//181 213//181 197//181 195//181
f 214//183 215//183 201//183 199//183
f 216//185 217//185 205//185 203//185
usemtl mat8
f 1//13 2//13 5//13 7//13 9//13 11//13 13//13 15//13 17//13 19//13 21//13 23//13
f 36//14 35//14 34//14 33//14 32//14 31//14 30//14 29//14 28//14 27//14 26//14 25//14
f 84//39 30//39 31//39 43//39
f 45//40 83//40 83//40 44//40 39//40
f 39//41 44//41 41//41 38//41
f 43//42 31//42 32//42 42//42
f 82//43 29//43 30//43 84//43
f 47//44 81//44 81//44 83//44 45//44
f 49//45 79//45 79//45 81//45 47//45
f 80//46 28//46 29//46 82//46
f 78//47 27//47 28//47 80//47
f 51//48 77//48 77//48 79//48 49//48
f 53//49 75//49 75//49 77//49 51//49
f 76//50 26//50 27//50 78//50
f 74//51 25//51 26//51 76//51
f 55//52 73//52 73//52 75//52 53//52
f 57//53 71//53 71//53 73//53 55//53
f 70//54 35//54 36//54 72//54
f 72//55 36//55 25//55 74//55
f 59//56 69//56 69//56 71//56 57//56
f 61//57 67//57 67//57 69//57 59//57
f 68//58 34//58 35//58 70//58
f 66//59 33//59 34//59 68//59
f 42//60 32//60 33//60 66//60
f 38//61 41//61 41//61 65//61 63//61
f 63//62 65//62 65//62 67//62 61//62
f 18//64 88//64 85//64 20//64
f 87//65 64//65 62//65 86//65
f 86//67 62//67 60//67 90//67
f 20//68 85//68 85//68 89//68 22//68
f 22//70 89//70 89//70 91//70 24//70
f 90//71 60//71 58//71 92//71
f 24//73 91//73 91//73 93//73 4//73
f 92//74 58//74 56//74 94//74
f 4//76 93//76 93//76 95//76 3//76
f 94//77 56//77 54//77 96//77
f 96//79 54//79 52//79 98//79
f 3//80 95//80 95//80 97//80 6//80
f 98//82 52//82 50//82 100//82
f 6//83 97//83 97//83 99//83 8//83
f 8//85 99//85 99//85 101//85 10//85
f 100//86 50//86 48//86 102//86
f 102//88 48//88 46//88 104//88
f 10//89 101//89 101//89 103//89 12//89
f 104//91 46//91 40//91 106//91
f 12//92 103//92 103//92 105//92 14//92
f 14//94 105//94 105//94 107//94 16//94
f 106//95 40//95 37//95 108//95
f 16//97 107//97 107//97 88//97 18//97
f 108//98 37//98 64//98 87//98
f 112//99 111//99 110//99 109//99
f 109//100 110//100 122//100 121//100 120//100 119//100 118//100 117//100 116//100 115//100 114//100 113//100
f 111//101 123//101 122//101 110//101
f 123//102 124//102 121//102 122//102
f 124//103 125//103 120//103 121//103
f 125//104 126//104 119//104 120//104
f 126//105 127//105 118//105 119//105
f 127//106 127//106 128//106 117//106 118//106
f 128//107 129//107 116//107 117//107
f 129//108 130//108 115//108 116//108
f 130//109 131//109 114//109 115//109
f 131//110 132//110 113//110 114//110
f 132//111 112//111 109//111 113//111
f 136//112 135//112 134//112 133//112
f 138//113 137//113 135//113 136//113
f 133//116 134//116 140//116 139//116
f 142//118 141//118 137//118 138//118
f 144//120 143//120 141//120 142//120
f 146//122 145//122 143//122 144//122
f 148//124 147//124 145//124 146//124
f 150//126 149//126 147//126 148//126
f 152//128 151//128 149//128 150//128
f 154//130 153//130 151//130 152//130
f 156//132 155//132 153//132 154//132
f 139//134 140//134 140//134 155//134 156//134
f 145//141 157//141 143//141
f 184//163 187//163 186//163 183//163
f 189//165 191//165 190//165 188//165
f 193//167 195//167 194//167 192//167
f 197//169 199//169 198//169 196//169
f 201//171 203//171 202//171 200//171
f 205//173 185//173 182//173 204//173
f 206//176 208//176 187//176 184//176
f 209//178 210//178 191//178 189//178
f 211//180 212//180 195//180 193//180
f 213//182 214//182 199//182 197//182
f 215//184 216//184 203//184 201//184
f 217//186 207//186 185//186 205//186
f 217//187 216//187 215//187 214//187 213//187 212//187 211//187 210//187 209//187 208//187 206//187 207//187
usemtl mat18
f 161//148 160//148 159//148 158//148
f 160//149 163//149 162//149 159//149
f 163//150 165//150 164//150 162//150
f 165//151 167//151 166//151 164//151
f 167//152 169//152 168//152 166//152
f 169//153 171//153 170//153 168//153
f 171//154 173//154 172//154 170//154
f 173//155 175//155 174//155 172//155
f 175//156 177//156 176//156 174//156
f 177//157 179//157 178//157 176//157
f 179//158 181//158 180//158 178//158
f 181//159 161//159 158//159 180//159
f 158//160 159//160 162//160 164//160 166//160 168//160 170//160 172//160 174//160 176//160 178//160 180//160
f 181//161 179//161 177//161 175//161 173//161 171//161 169//161 167//161 165//161 163//161 160//161 161//161
usemtl mat21
f 182//174 183//174 186//174 188//174 190//174 192//174 194//174 196//174 198//174 200//174 202//174 204//174
